HIERARCHY
ROOT hip
{
  OFFSET 0 0 0
  CHANNELS 6 Xposition Yposition Zposition Zrotation Yrotation Xrotation
  JOINT abdomen
  {
    OFFSET 0 20.6881 -0.73152
    CHANNELS 3 Zrotation Xrotation Yrotation
    JOINT chest
    {
      OFFSET 0 11.7043 -0.48768
      CHANNELS 3 Zrotation Xrotation Yrotation
      JOINT neck
      {
        OFFSET 0 22.1894 -2.19456
        CHANNELS 3 Zrotation Xrotation Yrotation
        JOINT head
        {
          OFFSET -0.24384 7.07133 1.2192
          CHANNELS 3 Zrotation Xrotation Yrotation
          JOINT leftEye
          {
            OFFSET 4.14528 8.04674 8.04672
            CHANNELS 3 Zrotation Xrotation Yrotation
            End Site
            {
              OFFSET 1 0 0
            }
          }
          JOINT rightEye
          {
            OFFSET -3.6576 8.04674 8.04672
            CHANNELS 3 Zrotation Xrotation Yrotation
            End Site
            {
              OFFSET 1 0 0
            }
          }
        }
      }
      JOINT rCollar
      {
        OFFSET -2.68224 19.2634 -4.8768
        CHANNELS 3 Zrotation Xrotation Yrotation
        JOINT rShldr
        {
          OFFSET -8.77824 -1.95073 1.46304
          CHANNELS 3 Zrotation Xrotation Yrotation
          JOINT rForeArm
          {
            OFFSET -28.1742 -1.7115 0.48768
            CHANNELS 3 Zrotation Xrotation Yrotation
            JOINT rHand
            {
              OFFSET -22.5879 0.773209 7.07136
              CHANNELS 3 Zrotation Xrotation Yrotation
              JOINT rThumb1
              {
                OFFSET -1.2192 -0.487915 3.41376
                CHANNELS 3 Zrotation Xrotation Yrotation
                JOINT rThumb2
                {
                  OFFSET -3.37035 -0.52449 3.41376
                  CHANNELS 3 Zrotation Xrotation Yrotation
                  End Site
                  {
                    OFFSET -1.78271 -1.18214 1.43049
                  }
                }
              }
              JOINT rIndex1
              {
                OFFSET -7.75947 0.938293 5.60832
                CHANNELS 3 Zrotation Xrotation Yrotation
                JOINT rIndex2
                {
                  OFFSET -2.54057 -0.884171 1.56538
                  CHANNELS 3 Zrotation Xrotation Yrotation
                  End Site
                  {
                    OFFSET -1.62519 -0.234802 1.16502
                  }
                }
              }
              JOINT rMid1
              {
                OFFSET -8.24714 1.18213 3.41376
                CHANNELS 3 Zrotation Xrotation Yrotation
                JOINT rMid2
                {
                  OFFSET -3.10165 -0.590103 1.0647
                  CHANNELS 3 Zrotation Xrotation Yrotation
                  End Site
                  {
                    OFFSET -2.48547 -0.328903 0.83742
                  }
                }
              }
              JOINT rRing1
              {
                OFFSET -8.82822 0.546677 1.51678
                CHANNELS 3 Zrotation Xrotation Yrotation
                JOINT rRing2
                {
                  OFFSET -2.60934 -0.819778 -0.0198488
                  CHANNELS 3 Zrotation Xrotation Yrotation
                  End Site
                  {
                    OFFSET -2.33842 -0.294052 0.168128
                  }
                }
              }
              JOINT rPinky1
              {
                OFFSET -8.27202 -0.0477905 -0.4584
                CHANNELS 3 Zrotation Xrotation Yrotation
                JOINT rPinky2
                {
                  OFFSET -1.82734 -0.647385 -0.700984
                  CHANNELS 3 Zrotation Xrotation Yrotation
                  End Site
                  {
                    OFFSET -1.69225 -0.51767 -0.607171
                  }
                }
              }
            }
          }
        }
      }
      JOINT lCollar
      {
        OFFSET 2.68224 19.2634 -4.8768
        CHANNELS 3 Zrotation Xrotation Yrotation
        JOINT lShldr
        {
          OFFSET 8.77824 -1.95073 1.46304
          CHANNELS 3 Zrotation Xrotation Yrotation
          JOINT lForeArm
          {
            OFFSET 28.1742 -1.7115 0.48768
            CHANNELS 3 Zrotation Xrotation Yrotation
            JOINT lHand
            {
              OFFSET 22.5879 0.773209 7.07136
              CHANNELS 3 Zrotation Xrotation Yrotation
              JOINT lThumb1
              {
                OFFSET 1.2192 -0.487915 3.41376
                CHANNELS 3 Zrotation Xrotation Yrotation
                JOINT lThumb2
                {
                  OFFSET 3.37035 -0.52449 3.41376
                  CHANNELS 3 Zrotation Xrotation Yrotation
                  End Site
                  {
                    OFFSET 1.78271 -1.18214 1.43049
                  }
                }
              }
              JOINT lIndex1
              {
                OFFSET 7.75947 0.938293 5.60832
                CHANNELS 3 Zrotation Xrotation Yrotation
                JOINT lIndex2
                {
                  OFFSET 2.54057 -0.884171 1.56538
                  CHANNELS 3 Zrotation Xrotation Yrotation
                  End Site
                  {
                    OFFSET 1.62519 -0.234802 1.16502
                  }
                }
              }
              JOINT lMid1
              {
                OFFSET 8.24714 1.18213 3.41376
                CHANNELS 3 Zrotation Xrotation Yrotation
                JOINT lMid2
                {
                  OFFSET 3.10165 -0.590103 1.0647
                  CHANNELS 3 Zrotation Xrotation Yrotation
                  End Site
                  {
                    OFFSET 2.48547 -0.328903 0.83742
                  }
                }
              }
              JOINT lRing1
              {
                OFFSET 8.82822 0.546677 1.51678
                CHANNELS 3 Zrotation Xrotation Yrotation
                JOINT lRing2
                {
                  OFFSET 2.60934 -0.819778 -0.0198488
                  CHANNELS 3 Zrotation Xrotation Yrotation
                  End Site
                  {
                    OFFSET 2.33842 -0.294052 0.168128
                  }
                }
              }
              JOINT lPinky1
              {
                OFFSET 8.27202 -0.0477905 -0.4584
                CHANNELS 3 Zrotation Xrotation Yrotation
                JOINT lPinky2
                {
                  OFFSET 1.82734 -0.647385 -0.700984
                  CHANNELS 3 Zrotation Xrotation Yrotation
                  End Site
                  {
                    OFFSET 1.69225 -0.51767 -0.607171
                  }
                }
              }
            }
          }
        }
      }
    }
  }
  JOINT rButtock
  {
    OFFSET -8.77824 4.35084 1.2192
    CHANNELS 3 Zrotation Xrotation Yrotation
    JOINT rThigh
    {
      OFFSET 0 -1.70687 -2.19456
      CHANNELS 3 Zrotation Xrotation Yrotation
      JOINT rShin
      {
        OFFSET 0 -36.8199 0.73152
        CHANNELS 3 Zrotation Xrotation Yrotation
        JOINT rFoot
        {
          OFFSET 0.73152 -45.1104 -5.12064
          CHANNELS 3 Zrotation Xrotation Yrotation
          End Site
          {
            OFFSET -1.1221 -3.69964 12.103
          }
        }
      }
    }
  }
  JOINT lButtock
  {
    OFFSET 8.77824 4.35084 1.2192
    CHANNELS 3 Zrotation Xrotation Yrotation
    JOINT lThigh
    {
      OFFSET 0 -1.70687 -2.19456
      CHANNELS 3 Zrotation Xrotation Yrotation
      JOINT lShin
      {
        OFFSET 0 -36.8199 0.73152
        CHANNELS 3 Zrotation Xrotation Yrotation
        JOINT lFoot
        {
          OFFSET -0.73152 -45.1104 -5.12064
          CHANNELS 3 Zrotation Xrotation Yrotation
          End Site
          {
            OFFSET 1.1221 -3.69964 12.103
          }
        }
      }
    }
  }
}
MOTION
Frames:	4
Frame Time:	0.00833333
0.0 0.0 0.0 0.0 0.0 0.0 0.0 0.0 0.0 0.0 0.0 0.0 0.0 0.0 0.0 0.0 0.0 0.0 0.0 0.0 0.0 0.0 0.0 0.0 0.0 0.0 0.0 0.0 0.0 0.0 0.0 0.0 0.0 0.0 0.0 0.0 0.0 0.0 0.0 0.0 0.0 0.0 0.0 0.0 0.0 0.0 0.0 0.0 0.0 0.0 0.0 0.0 0.0 0.0 0.0 0.0 0.0 0.0 0.0 0.0 0.0 0.0 0.0 0.0 0.0 0.0 0.0 0.0 0.0 0.0 0.0 0.0 0.0 0.0 0.0 0.0 0.0 0.0 0.0 0.0 0.0 0.0 0.0 0.0 0.0 0.0 0.0 0.0 0.0 0.0 0.0 0.0 0.0 0.0 0.0 0.0 0.0 0.0 0.0 0.0 0.0 0.0 0.0 0.0 0.0 0.0 0.0 0.0 0.0 0.0 0.0 0.0 0.0 0.0 0.0 0.0 0.0 0.0 0.0 0.0 0.0 0.0 0.0 0.0 0.0 0.0 0.0 0.0 0.0 0.0 0.0 0.0
-91.1021 84.4255 -5.5912999999999995 -28.212688 79.282691 -21.237787 1.050066 -1.601775 33.253767 1.359754 -0.022763 -33.02153 11.276592 2.214827 65.370981 -3.178659 10.671468 -81.067772 -0.00126 0.0 -0.000919 -0.002229 -0.0 0.004198 -150.120107 21.701383 155.220301 -8.195491 13.448403 24.181307 -172.137079 -1.924804 -174.181721 -2.209416 15.606003 0.967509 -15.475319 14.198771 4.248049 4.928269 -3.615561 5.781971 -173.764392 -52.872536 119.824204 4.730623 18.216678 -4.967782 -17.371553 35.631485 12.956049 -34.309226 55.15123 29.049786 -145.100677 -1.522428 -178.650644 -153.469158 -16.984639 -176.798793 12.991346 44.343872 10.760458 14.741668 44.09553 8.268166 29.637268 58.070638 -32.03824 -22.202005 3.314913 -18.565949 -19.595648 -81.719829 -24.578068 6.836386 20.003906 -0.363564 1.581732 1.557081 -0.263616 -9.320693 -12.354795 6.161393 -37.216876 -57.917499 0.644117 151.02798 -5.415391 -113.380833 171.86989 -41.091357 -145.159505 -3.043598 0.161206 -0.346669 145.099279 -1.520126 178.648171 2.036652 -54.590442 22.983127 152.696728 39.284086 147.935556 26.035445 -40.249282 26.823172 -179.977989 75.748663 -0.01506 -173.628027 69.641207 -0.0 -4.977573 10.396907 -75.809238 -28.069549 -69.88309 72.35524 -0.00065 0.000649 -0.0 1.360043 -5.58317 138.833072 0.254704 -7.008885 -102.297351 -80.239456 14.159544 3.183931
-90.81479999999999 84.5707 -5.4658 -31.773504 80.820935 -25.035713 2.682223 -3.048988 41.372571 1.70416 0.228292 -41.019921 11.934899 0.096785 64.662076 2.592646 10.840251 -97.511426 0.000507 -0.0 -0.002246 0.000507 -0.0 -0.002246 -150.168529 21.534975 155.274627 130.750147 -38.685345 141.237682 2.026098 -44.648675 15.059839 -5.793012 34.209961 2.650228 113.262015 -50.39734 54.829069 -142.228657 17.198476 97.9854 29.398689 -49.646172 -4.160074 4.463048 17.072561 0.921143 -0.056271 0.168008 0.03312 -174.207098 -36.947244 143.644316 -145.121815 1.974869 -179.749985 11.761446 29.608867 -5.632246 -16.662835 -29.659292 -15.919383 -147.131761 12.878265 -143.804466 148.661106 26.306843 -153.57454 -114.364444 -49.850562 -128.290774 9.505319 -39.273876 -7.994853 1.048423 0.666646 0.459447 -83.254093 -50.257677 -33.616063 31.900996 5.688491 8.148132 0.328421 0.529498 -0.18727 144.037341 10.954499 -106.914372 167.375858 -28.008358 -145.269275 7.561733 26.103405 -6.425337 74.841728 72.96208 -92.827575 73.496508 -82.415215 90.590613 -1.298301 3.491728 -1.191892 -14.272787 40.954147 -8.380038 -0.0 0.000722 0.001726 3.006274 -8.178509 70.732017 7.370286 1.46132 -57.766875 -76.481334 4.993856 13.430951 179.996646 75.748627 0.00346 -169.579983 68.506653 135.231296 1.251396 -10.622235 -99.105247 -146.668309 -3.835806 30.054077
-90.52130000000001 84.72319999999999 -5.3289 -36.799763 82.242821 -30.248807 3.628272 -6.459631 100.674932 3.489403 -2.240682 -100.084067 14.317267 6.623934 113.439302 3.885284 5.775004 -161.352271 0.003393 -0.0 -0.001794 0.002346 0.0 0.001555 -152.128757 14.113169 157.556688 -58.235502 1.298663 24.223821 111.853811 53.038796 -107.073864 -157.273215 69.811592 139.30493 114.539087 -50.24586 55.721826 -167.689945 -27.458957 123.808767 -133.601158 11.792177 111.653893 84.967332 -68.82716 35.713055 0.291156 -0.849706 -0.157666 80.534194 -78.006383 52.075171 -145.11734 0.185515 -179.186516 -157.313562 37.818567 176.486257 -157.32865 57.246432 -150.512567 -153.914467 29.508123 -145.415036 155.417288 -2.951333 -161.718837 58.236609 16.754372 -8.075636 -118.681885 56.858407 102.980097 35.5394 61.640109 -19.313844 5.433636 5.264914 -1.078272 -28.989478 -41.476017 13.386598 -10.282651 -18.182439 4.584473 -114.059758 -62.423677 -56.227946 -178.065032 -60.778444 -140.973766 19.008732 42.864141 -15.308574 0.020776 -1.724719 0.539525 23.238403 72.962744 -36.406517 26.563526 -38.861229 25.605453 126.519819 -30.694875 125.543959 0.003333 0.000827 0.003333 5.669716 -8.839837 0.985726 -8.15109 15.125245 -81.36229 5.464649 -51.854786 94.133712 179.994339 75.750565 0.003873 -161.86017 68.683533 -19.375729 -3.074081 7.498782 -21.344714 71.045133 18.017693 4.863784
